<?xml version="1.0" encoding="utf-8"?>
<!-- Generator: Adobe Illustrator 16.0.3, SVG Export Plug-In . SVG Version: 6.00 Build 0)  -->
<!DOCTYPE svg PUBLIC "-//W3C//DTD SVG 1.1//EN" "http://www.w3.org/Graphics/SVG/1.1/DTD/svg11.dtd">
<svg version="1.1" id="레이어_1" xmlns="http://www.w3.org/2000/svg" xmlns:xlink="http://www.w3.org/1999/xlink" x="0px"
	 y="0px" width="56px" height="56px" viewBox="0 0 56 56" enable-background="new 0 0 56 56" xml:space="preserve">
<path fill="#E0E0E0" d="M-0.284-0.361v56h56v-56H-0.284z M7.912,27.901l2.352-2.393l2.279,2.241v-4.536
	c0-7.238,6.796-13.129,15.146-13.129c5.16,0,9.913,2.239,12.718,5.992l-2.687,2.009c-2.175-2.909-5.926-4.646-10.031-4.646
	c-6.503,0-11.791,4.384-11.791,9.773v4.495l2.244-2.207l2.354,2.392l-6.297,6.19L7.912,27.901z M45.168,29.47l-2.332-2.295v4.891
	c0,7.238-6.796,13.127-15.146,13.127c-4.624,0-8.938-1.796-11.834-4.926l2.464-2.276c2.261,2.444,5.679,3.847,9.37,3.847
	c6.5,0,11.79-4.383,11.79-9.771v-4.743l-2.19,2.152l-2.352-2.391l6.294-6.19l6.29,6.185L45.168,29.47z"/>
</svg>
