<?xml version="1.0" encoding="utf-8"?>
<!-- Generator: Adobe Illustrator 16.0.3, SVG Export Plug-In . SVG Version: 6.00 Build 0)  -->
<!DOCTYPE svg PUBLIC "-//W3C//DTD SVG 1.1//EN" "http://www.w3.org/Graphics/SVG/1.1/DTD/svg11.dtd">
<svg version="1.1" id="레이어_1" xmlns="http://www.w3.org/2000/svg" xmlns:xlink="http://www.w3.org/1999/xlink" x="0px"
	 y="0px" width="120px" height="30.057px" viewBox="0 0 120 30.057" enable-background="new 0 0 120 30.057" xml:space="preserve">
<g>
	<g>
		<path fill="#E14352" d="M23.188,7.374c-0.653-1.489-1.535-2.777-2.642-3.868c-1.107-1.092-2.396-1.957-3.866-2.595
			c-1.472-0.638-3.044-0.94-4.711-0.908c-1.638,0-3.185,0.316-4.643,0.954c-1.455,0.639-2.729,1.51-3.82,2.62
			C2.411,4.682,1.557,5.97,0.932,7.439c-0.582,1.383-0.887,2.851-0.923,4.404H0v18.055h6.328v-17.79h0.006
			c0-0.818,0.183-1.535,0.471-2.232C7.093,9.178,7.494,8.564,8.01,8.032c0.516-0.531,1.116-0.946,1.797-1.251
			c0.684-0.304,1.418-0.454,2.21-0.454c0.819,0,1.575,0.146,2.273,0.432c0.696,0.288,1.311,0.699,1.844,1.229
			c0.531,0.531,0.945,1.146,1.25,1.843c0.303,0.698,0.471,1.458,0.501,2.276v17.792h6.328V12.106
			C24.181,10.438,23.839,8.858,23.188,7.374z"/>
	</g>
	<g>
		<path fill="#262E40" d="M23.548,0.002c1.667,0,3.239,0.312,4.708,0.929c1.472,0.625,2.756,1.482,3.847,2.574
			c1.092,1.091,1.956,2.375,2.592,3.846c0.639,1.471,0.956,3.04,0.956,4.709c0,1.637-0.303,3.195-0.908,4.665
			c-0.609,1.473-1.448,2.754-2.525,3.845c-1.08,1.091-2.352,1.965-3.824,2.618c-1.473,0.652-3.056,0.976-4.753,0.976
			c-0.792,0-1.521,0.155-2.186,0.454c-0.666,0.305-1.26,0.715-1.775,1.23c-0.516,0.518-0.917,1.123-1.206,1.818
			c-0.288,0.701-0.432,1.443-0.432,2.233h-6.459c0-1.67,0.36-3.233,0.999-4.688c0.636-1.456,1.5-2.732,2.591-3.824
			c1.095-1.092,2.37-1.957,3.827-2.593c1.455-0.637,3.005-0.957,4.643-0.957c0.786-0.028,1.523-0.195,2.204-0.499
			c0.684-0.303,1.281-0.711,1.8-1.228c0.513-0.514,0.924-1.108,1.229-1.775c0.3-0.666,0.453-1.396,0.453-2.185
			c0-0.789-0.153-1.542-0.453-2.251c-0.306-0.715-0.723-1.328-1.254-1.845c-0.53-0.515-1.146-0.925-1.841-1.227
			c-0.699-0.303-1.442-0.457-2.231-0.457c-0.789,0-1.523,0.154-2.208,0.457c-0.684,0.302-1.28,0.72-1.799,1.253
			c-0.516,0.526-0.915,1.143-1.206,1.841c-0.288,0.698-0.432,1.441-0.432,2.229v0.228h-6.103v-0.182
			c0-1.669,0.051-3.246,0.689-4.732c0.636-1.486,1.5-2.779,2.595-3.87c1.091-1.09,2.363-1.956,3.82-2.593S21.91,0.03,23.548,0.002z"
			/>
	</g>
	<g>
		<path fill="#E14352" d="M6.324,15.884c0-1.232,0.049-2.339,0.049-3.733c0-0.819,0.144-1.578,0.432-2.275
			C7.093,9.178,7.494,8.564,8.01,8.032c0.516-0.531,1.116-0.946,1.797-1.251c0.684-0.304,1.418-0.454,2.21-0.454
			c0.819,0,1.575,0.146,2.273,0.432c0.696,0.288,1.311,0.699,1.844,1.229c0.531,0.531,0.945,1.146,1.25,1.843
			c0.303,0.698,0.471,1.458,0.501,2.276v1.096h6.328v-1.319h-0.013c-0.057-1.588-0.393-3.087-1.014-4.509
			c-0.653-1.489-1.535-2.777-2.642-3.868c-1.107-1.092-2.396-1.957-3.866-2.595c-1.472-0.638-3.044-0.94-4.711-0.908
			c-1.638,0-3.185,0.316-4.643,0.954c-1.455,0.639-2.729,1.51-3.82,2.62C2.411,4.682,1.557,5.97,0.932,7.439
			C0.312,8.912,0,10.482,0,12.151c0,1.394,0.003,2.645,0.003,3.982"/>
	</g>
	<rect x="3.958" y="11.898" fill="#E14352" width="16.293" height="6.323"/>
</g>
<g>
	<path fill="#262E40" d="M51.728,13.379v1.106c0,1.957-1.107,2.934-3.32,2.934H46.62c-2.213,0-3.32-0.977-3.32-2.934V3.086
		c0-1.955,1.106-2.933,3.32-2.933h1.789c2.213,0,3.32,0.978,3.32,2.933v1.948h-2.771V3.255c0-0.674-0.414-1.01-1.242-1.01h-0.548
		c-0.731,0-1.095,0.336-1.095,1.01v11.062c0,0.672,0.363,1.01,1.095,1.01h0.694c0.73,0,1.096-0.338,1.096-1.01v-0.938H51.728z"/>
	<path fill="#262E40" d="M57.095,17.418c-2.232,0-3.348-0.977-3.348-2.934V3.111c0-1.972,1.105-2.958,3.318-2.958h2.657
		c2.211,0,3.315,0.985,3.315,2.958v11.374c0,1.957-1.115,2.934-3.345,2.934H57.095z M57.758,15.327h1.413
		c0.732,0,1.098-0.338,1.098-1.01V3.255c0-0.674-0.414-1.01-1.241-1.01H57.73c-0.809,0-1.214,0.336-1.214,1.01v11.062
		C56.516,14.989,56.932,15.327,57.758,15.327z"/>
	<path fill="#262E40" d="M71.118,10.301l2.567-10.147h3.059v17.265h-2.77l0.288-11.302l-2.077,8.176h-2.137l-2.076-8.176
		l0.289,11.302H65.49V0.154h3.06L71.118,10.301z"/>
	<path fill="#262E40" d="M79.342,0.154h5.049c2.23,0,3.348,0.985,3.348,2.958v5.122c0,1.955-1.106,2.933-3.317,2.933h-2.309v6.252
		h-2.771V0.154z M82.112,9.074h1.759c0.731,0,1.097-0.336,1.097-1.01V3.255c0-0.674-0.412-1.01-1.239-1.01h-1.616V9.074z"/>
	<path fill="#262E40" d="M92.559,17.418h-2.771V3.111c0-1.972,1.105-2.958,3.318-2.958h2.076c2.213,0,3.319,0.985,3.319,2.958
		v14.307h-2.769v-6.325h-3.174V17.418z M95.732,9.003V3.255c0-0.674-0.404-1.01-1.215-1.01H93.77c-0.809,0-1.211,0.336-1.211,1.01
		v5.749H95.732z"/>
	<path fill="#262E40" d="M106.695,8.497V0.154h2.771v17.265h-2.771v-3.439l-2.972-7.863v11.302h-2.771V0.154h2.771L106.695,8.497z"
		/>
	<path fill="#262E40" d="M116.65,17.418h-2.769V11.07l-3.404-10.917h2.739l2.078,7.502h0.086l1.877-7.502H120l-3.35,10.917V17.418z"
		/>
</g>
<g>
	<path fill="#262E40" d="M44.131,30.057h-0.806v-4.993c0-0.688,0.322-1.032,0.965-1.032h0.604c0.644,0,0.965,0.344,0.965,1.032
		v4.993h-0.806V27.85h-0.923V30.057z M45.054,27.12v-2.006c0-0.234-0.117-0.352-0.352-0.352h-0.218
		c-0.235,0-0.353,0.118-0.353,0.352v2.006H45.054z"/>
	<path fill="#262E40" d="M51.003,30.057H49.09v-6.025h0.806v5.295h1.107V30.057z"/>
	<path fill="#262E40" d="M55.895,30.057h-1.913v-6.025h0.806v5.295h1.107V30.057z"/>
	<path fill="#262E40" d="M63.497,30.057h-0.806v-4.993c0-0.688,0.321-1.032,0.965-1.032h0.604c0.644,0,0.965,0.344,0.965,1.032
		v4.993H64.42V27.85h-0.923V30.057z M64.42,27.12v-2.006c0-0.234-0.118-0.352-0.353-0.352H63.85c-0.235,0-0.353,0.118-0.353,0.352
		v2.006H64.42z"/>
	<path fill="#262E40" d="M70.326,26.96c0.441,0.123,0.664,0.353,0.664,0.688v1.51c0,0.598-0.306,0.898-0.916,0.898h-1.619v-6.025
		h1.377c0.715,0,1.074,0.364,1.074,1.091v1.158c0,0.347-0.193,0.56-0.58,0.638V26.96z M69.262,26.575h0.377
		c0.308,0,0.461-0.146,0.461-0.436v-0.94c0-0.291-0.119-0.437-0.36-0.437h-0.478V26.575z M69.262,29.327h0.604
		c0.213,0,0.318-0.086,0.318-0.261v-1.334c0-0.285-0.159-0.428-0.479-0.428h-0.443V29.327z"/>
	<path fill="#262E40" d="M75.109,30.057c-0.648,0-0.974-0.342-0.974-1.024v-3.969c0-0.688,0.321-1.032,0.965-1.032h0.772
		c0.644,0,0.965,0.344,0.965,1.032v3.969c0,0.682-0.324,1.024-0.973,1.024H75.109z M75.303,29.327h0.41
		c0.213,0,0.32-0.118,0.32-0.353v-3.86c0-0.234-0.121-0.352-0.361-0.352h-0.378c-0.235,0-0.353,0.118-0.353,0.352v3.86
		C74.941,29.209,75.063,29.327,75.303,29.327z"/>
	<path fill="#262E40" d="M82.686,24.032v4.883c0,0.761-0.324,1.142-0.973,1.142h-0.68c-0.644,0-0.965-0.383-0.965-1.15v-4.875h0.805
		v4.9c0,0.264,0.118,0.395,0.354,0.395h0.327c0.218,0,0.327-0.131,0.327-0.395v-4.9H82.686z"/>
	<path fill="#262E40" d="M87.242,24.762v5.295h-0.806v-5.295h-0.771v-0.73h2.349v0.73H87.242z"/>
	<path fill="#262E40" d="M97.262,28.647v0.386c0,0.682-0.322,1.024-0.966,1.024h-0.521c-0.643,0-0.965-0.342-0.965-1.024v-3.977
		c0-0.683,0.322-1.024,0.965-1.024h0.521c0.644,0,0.966,0.341,0.966,1.024v0.679h-0.807v-0.621c0-0.234-0.12-0.352-0.36-0.352
		h-0.159c-0.213,0-0.319,0.118-0.319,0.352v3.86c0,0.235,0.106,0.353,0.319,0.353h0.201c0.213,0,0.318-0.118,0.318-0.353v-0.327
		H97.262z"/>
	<path fill="#262E40" d="M102.32,30.057h-1.913v-6.025h0.806v5.295h1.107V30.057z"/>
	<path fill="#262E40" d="M106.23,30.057c-0.648,0-0.973-0.342-0.973-1.024v-3.969c0-0.688,0.32-1.032,0.965-1.032h0.771
		c0.643,0,0.965,0.344,0.965,1.032v3.969c0,0.682-0.324,1.024-0.973,1.024H106.23z M106.424,29.327h0.41
		c0.213,0,0.32-0.118,0.32-0.353v-3.86c0-0.234-0.121-0.352-0.361-0.352h-0.378c-0.235,0-0.353,0.118-0.353,0.352v3.86
		C106.063,29.209,106.184,29.327,106.424,29.327z"/>
	<path fill="#262E40" d="M113.808,24.032v4.883c0,0.761-0.325,1.142-0.974,1.142h-0.68c-0.643,0-0.965-0.383-0.965-1.15v-4.875
		h0.806v4.9c0,0.264,0.117,0.395,0.353,0.395h0.326c0.219,0,0.328-0.131,0.328-0.395v-4.9H113.808z"/>
	<path fill="#262E40" d="M117.08,30.057v-6.025h1.401c0.755,0,1.133,0.386,1.133,1.158v3.994c0,0.582-0.321,0.873-0.966,0.873
		H117.08z M117.885,29.327h0.605c0.212,0,0.318-0.09,0.318-0.269v-3.859c0-0.291-0.121-0.437-0.361-0.437h-0.563V29.327z"/>
</g>
</svg>
