<?xml version="1.0" encoding="utf-8"?>
<!-- Generator: Adobe Illustrator 16.0.3, SVG Export Plug-In . SVG Version: 6.00 Build 0)  -->
<!DOCTYPE svg PUBLIC "-//W3C//DTD SVG 1.1//EN" "http://www.w3.org/Graphics/SVG/1.1/DTD/svg11.dtd">
<svg version="1.1" id="레이어_1" xmlns="http://www.w3.org/2000/svg" xmlns:xlink="http://www.w3.org/1999/xlink" x="0px"
	 y="0px" width="32px" height="32px" viewBox="0 0 32 32" enable-background="new 0 0 32 32" xml:space="preserve">
<g id="레이어_1_1_">
</g>
<g>
	<polyline fill="none" stroke="#444344" stroke-width="2" stroke-miterlimit="10" points="23.5,27.999 23.5,29.999 2.5,29.999 
		2.5,2.001 23.5,2.001 23.5,15.868 	"/>
	<path fill="#99CCCC" stroke="#444344" stroke-width="2" stroke-miterlimit="10" d="M29.5,24.999c0,1.104-0.896,2-2,2h-8
		c-1.104,0-2-0.896-2-2v-8c0-1.103,0.896-1.998,2-1.998h8c1.104,0,2,0.896,2,1.998V24.999z"/>
	<polyline fill="none" stroke="#444344" stroke-width="2" stroke-miterlimit="10" points="26.5,18.999 22.382,22.88 20.5,20.999 	
		"/>
	<polyline fill="none" stroke="#FF4F5E" stroke-width="2" stroke-miterlimit="10" points="6.5,16.001 10.5,11.001 14.5,13.001 
		19.5,7.001 	"/>
</g>
</svg>
