<?xml version="1.0" encoding="utf-8"?>
<!-- Generator: Adobe Illustrator 16.0.3, SVG Export Plug-In . SVG Version: 6.00 Build 0)  -->
<!DOCTYPE svg PUBLIC "-//W3C//DTD SVG 1.1//EN" "http://www.w3.org/Graphics/SVG/1.1/DTD/svg11.dtd">
<svg version="1.1" id="레이어_2" xmlns="http://www.w3.org/2000/svg" xmlns:xlink="http://www.w3.org/1999/xlink" x="0px"
	 y="0px" width="160px" height="32px" viewBox="0 0 160 32" enable-background="new 0 0 160 32" xml:space="preserve">
<g>
	<polyline fill="none" stroke="#444344" stroke-width="2" stroke-linecap="square" stroke-miterlimit="10" points="136,26.5 
		131,26.5 131,11.5 157,11.5 157,26.5 152,26.5 	"/>
	
		<rect x="136" y="2.5" fill="none" stroke="#444344" stroke-width="2" stroke-linecap="square" stroke-miterlimit="10" width="16" height="9"/>
	
		<rect x="136" y="20.5" fill="none" stroke="#444344" stroke-width="2" stroke-linecap="square" stroke-miterlimit="10" width="16" height="9"/>
	<circle fill="#444344" cx="150.5" cy="16.133" r="1.5"/>
	
		<line fill="none" stroke="#444344" stroke-width="1.5" stroke-linecap="square" stroke-miterlimit="10" x1="139" y1="23.5" x2="149" y2="23.5"/>
	
		<line fill="none" stroke="#444344" stroke-width="1.5" stroke-linecap="square" stroke-miterlimit="10" x1="139" y1="26.5" x2="149" y2="26.5"/>
</g>
<g>
	<polyline fill="none" stroke="#444344" stroke-width="2" stroke-miterlimit="10" points="57,28 57,30 36,30 36,2 57,2 57,15.867 	
		"/>
	<g>
		<path fill="#444344" d="M45.069,24.336c0.767,0,1.394-0.303,1.88-0.91l1,1.031c-0.793,0.893-1.729,1.34-2.805,1.34
			s-1.963-0.34-2.66-1.021c-0.697-0.68-1.045-1.537-1.045-2.574s0.355-1.902,1.065-2.596s1.579-1.039,2.605-1.039
			c1.146,0,2.107,0.438,2.88,1.311l-0.97,1.1c-0.494-0.613-1.107-0.92-1.84-0.92c-0.587,0-1.088,0.191-1.505,0.574
			c-0.417,0.385-0.625,0.9-0.625,1.551s0.197,1.172,0.59,1.564C44.033,24.141,44.509,24.336,45.069,24.336z"/>
		<path fill="#444344" d="M50.814,20.121c-0.15,0.123-0.225,0.287-0.225,0.49s0.091,0.365,0.275,0.484
			c0.184,0.121,0.606,0.262,1.27,0.426s1.178,0.408,1.545,0.734c0.367,0.328,0.55,0.805,0.55,1.43c0,0.627-0.235,1.137-0.705,1.525
			c-0.47,0.391-1.088,0.586-1.855,0.586c-1.107,0-2.104-0.41-2.99-1.23l0.93-1.141c0.753,0.66,1.45,0.99,2.09,0.99
			c0.287,0,0.512-0.061,0.675-0.186c0.163-0.123,0.245-0.289,0.245-0.5c0-0.209-0.086-0.375-0.26-0.5
			c-0.173-0.123-0.517-0.248-1.03-0.375c-0.813-0.193-1.408-0.443-1.785-0.754c-0.377-0.311-0.565-0.797-0.565-1.461
			c0-0.662,0.238-1.174,0.715-1.535c0.477-0.359,1.072-0.539,1.785-0.539c0.466,0,0.933,0.08,1.4,0.24
			c0.466,0.16,0.873,0.387,1.22,0.68l-0.79,1.141c-0.607-0.461-1.234-0.691-1.88-0.691C51.169,19.936,50.964,19.998,50.814,20.121z"
			/>
		<path fill="#444344" d="M58.089,23.176l1.78-4.449h1.69l-2.81,6.99h-1.32l-2.81-6.99h1.69L58.089,23.176z"/>
	</g>
	<polyline fill="none" stroke="#444344" stroke-width="2" stroke-miterlimit="10" points="49.322,9.272 46.5,12.095 43.678,9.272 	
		"/>
	<line fill="none" stroke="#444344" stroke-width="2" stroke-miterlimit="10" x1="46.5" y1="6" x2="46.5" y2="11.728"/>
	<line fill="none" stroke="#444344" stroke-width="2" stroke-miterlimit="10" x1="51.25" y1="14.566" x2="41.75" y2="14.566"/>
</g>
<polygon fill="none" stroke="#444344" stroke-width="2" stroke-miterlimit="10" points="22,30 4,30 4,7 15,7 22,14 "/>
<polyline fill="none" stroke="#444344" stroke-width="2" stroke-miterlimit="10" points="10,7 10,2 21,2 28,9 28,25 23,25 "/>
<g>
	<polyline fill="none" stroke="#444344" stroke-width="2" stroke-miterlimit="10" points="89,28 89,30 68,30 68,2 89,2 89,15.867 	
		"/>
	<g>
		<path fill="#444344" d="M77.79,18.727h1.88l-2.18,3.369l2.36,3.621h-1.9l-1.49-2.301l-1.48,2.301H73.1l2.35-3.58l-2.19-3.41h1.87
			l1.33,2.07L77.79,18.727z"/>
		<path fill="#444344" d="M80.81,25.717v-6.99h1.56v5.6h2.98v1.391H80.81z"/>
		<path fill="#444344" d="M88.125,20.121c-0.15,0.123-0.225,0.287-0.225,0.49s0.091,0.365,0.275,0.484
			c0.184,0.121,0.606,0.262,1.27,0.426s1.178,0.408,1.545,0.734c0.367,0.328,0.55,0.805,0.55,1.43c0,0.627-0.235,1.137-0.705,1.525
			c-0.47,0.391-1.088,0.586-1.855,0.586c-1.107,0-2.104-0.41-2.99-1.23l0.93-1.141c0.753,0.66,1.45,0.99,2.09,0.99
			c0.287,0,0.512-0.061,0.675-0.186c0.163-0.123,0.245-0.289,0.245-0.5c0-0.209-0.086-0.375-0.26-0.5
			c-0.173-0.123-0.517-0.248-1.03-0.375c-0.813-0.193-1.408-0.443-1.785-0.754c-0.377-0.311-0.565-0.797-0.565-1.461
			c0-0.662,0.238-1.174,0.715-1.535c0.477-0.359,1.072-0.539,1.785-0.539c0.466,0,0.933,0.08,1.4,0.24
			c0.466,0.16,0.873,0.387,1.22,0.68l-0.79,1.141c-0.607-0.461-1.234-0.691-1.88-0.691C88.48,19.936,88.275,19.998,88.125,20.121z"
			/>
	</g>
	<polyline fill="none" stroke="#444344" stroke-width="2" stroke-miterlimit="10" points="81.322,9.272 78.5,12.095 75.678,9.272 	
		"/>
	<line fill="none" stroke="#444344" stroke-width="2" stroke-miterlimit="10" x1="78.5" y1="6" x2="78.5" y2="11.728"/>
	<line fill="none" stroke="#444344" stroke-width="2" stroke-miterlimit="10" x1="83.25" y1="14.566" x2="73.75" y2="14.566"/>
</g>
<g>
	<polyline fill="none" stroke="#444344" stroke-width="2" stroke-miterlimit="10" points="121,28 121,30 100,30 100,2 121,2 
		121,15.867 	"/>
	<g>
		<path fill="#444344" d="M110.675,19.352c0.49,0.416,0.735,1.057,0.735,1.92s-0.252,1.494-0.755,1.895s-1.271,0.6-2.305,0.6h-0.93
			v1.951h-1.56v-6.99h2.47C109.403,18.727,110.185,18.936,110.675,19.352z M109.53,22.102c0.187-0.211,0.28-0.518,0.28-0.92
			c0-0.404-0.122-0.689-0.365-0.859c-0.243-0.172-0.622-0.256-1.135-0.256h-0.89v2.35h1.05
			C108.99,22.416,109.343,22.311,109.53,22.102z"/>
		<path fill="#444344" d="M117.97,19.641c0.667,0.611,1,1.459,1,2.545c0,1.088-0.325,1.947-0.975,2.58
			c-0.65,0.635-1.642,0.951-2.975,0.951h-2.39v-6.99h2.47C116.347,18.727,117.303,19.031,117.97,19.641z M116.825,23.797
			c0.383-0.361,0.575-0.885,0.575-1.57c0-0.688-0.191-1.215-0.575-1.586c-0.384-0.369-0.972-0.555-1.765-0.555h-0.87v4.25h0.99
			C115.893,24.336,116.441,24.156,116.825,23.797z"/>
		<path fill="#444344" d="M125.12,18.727v1.369h-3.24v1.51h3.08v1.371h-3.08v2.74h-1.56v-6.99H125.12z"/>
	</g>
	<polyline fill="none" stroke="#444344" stroke-width="2" stroke-miterlimit="10" points="113.322,9.272 110.5,12.095 
		107.678,9.272 	"/>
	<line fill="none" stroke="#444344" stroke-width="2" stroke-miterlimit="10" x1="110.5" y1="6" x2="110.5" y2="11.728"/>
	<line fill="none" stroke="#444344" stroke-width="2" stroke-miterlimit="10" x1="115.25" y1="14.566" x2="105.75" y2="14.566"/>
</g>
<polyline fill="none" stroke="#444344" stroke-width="2" stroke-miterlimit="10" points="22,14 15,14 15,7 "/>
<polyline fill="none" stroke="#444344" stroke-width="2" stroke-miterlimit="10" points="28,9 21,9 21,2 "/>
</svg>
