<?xml version="1.0" encoding="utf-8"?>
<!-- Generator: Adobe Illustrator 16.0.3, SVG Export Plug-In . SVG Version: 6.00 Build 0)  -->
<!DOCTYPE svg PUBLIC "-//W3C//DTD SVG 1.1//EN" "http://www.w3.org/Graphics/SVG/1.1/DTD/svg11.dtd">
<svg version="1.1" id="레이어_1" xmlns="http://www.w3.org/2000/svg" xmlns:xlink="http://www.w3.org/1999/xlink" x="0px"
	 y="0px" width="32px" height="32px" viewBox="0 0 32 32" enable-background="new 0 0 32 32" xml:space="preserve">
<g id="레이어_1_1_">
</g>
<g id="레이어_2" opacity="0.3">
	<g>
		<polyline fill="none" stroke="#000000" stroke-width="2" stroke-miterlimit="10" points="23.5,28 23.5,30 2.5,30 2.5,2 23.5,2 
			23.5,15.867 		"/>
		<polyline fill="none" stroke="#000000" stroke-width="2" stroke-miterlimit="10" points="26.5,19 22.382,22.881 20.5,21 		"/>
		<polyline fill="none" stroke="#000000" stroke-width="2" stroke-miterlimit="10" points="6.5,16 10.5,11 14.5,13 19.5,7 		"/>
		<path fill="none" stroke="#000000" stroke-width="2" stroke-miterlimit="10" d="M29.5,25c0,1.104-0.896,2-2,2h-8
			c-1.104,0-2-0.896-2-2v-8c0-1.104,0.896-2,2-2h8c1.104,0,2,0.896,2,2V25z"/>
	</g>
</g>
</svg>
