<?xml version="1.0" encoding="utf-8"?>
<!-- Generator: Adobe Illustrator 16.0.3, SVG Export Plug-In . SVG Version: 6.00 Build 0)  -->
<!DOCTYPE svg PUBLIC "-//W3C//DTD SVG 1.1//EN" "http://www.w3.org/Graphics/SVG/1.1/DTD/svg11.dtd">
<svg version="1.1" id="Layer_1" xmlns="http://www.w3.org/2000/svg" xmlns:xlink="http://www.w3.org/1999/xlink" x="0px" y="0px"
	 width="15px" height="15px" viewBox="66.43 67.412 15 15" enable-background="new 66.43 67.412 15 15" xml:space="preserve">
<g>
	<circle fill="#9D5025" cx="73.93" cy="75.18" r="6.5"/>
	<circle fill="#F58536" cx="73.93" cy="74.646" r="6.5"/>
	<rect x="68.466" y="72.749" fill="#FFFFFF" width="2.36" height="3.794"/>
	<rect x="76.008" y="70.158" fill="#FFFFFF" width="2.106" height="2.105"/>
	<rect x="76.008" y="73.593" fill="#FFFFFF" width="2.106" height="2.106"/>
	<rect x="76.008" y="77.029" fill="#FFFFFF" width="2.106" height="2.106"/>
	<polygon fill="#FFFFFF" points="75.427,74.924 75.777,74.75 76.008,74.637 75.777,74.521 75.466,74.368 74.525,73.904 
		74.525,74.368 71.704,74.368 74.91,72.315 75.164,72.708 75.696,71.812 75.853,71.546 76.008,71.286 75.709,71.322 75.369,71.36 
		74.365,71.478 74.606,71.85 70.675,74.368 70.241,74.646 70.758,74.975 74.606,77.441 74.365,77.813 75.369,77.931 75.709,77.97 
		76.008,78.006 75.853,77.745 75.696,77.48 75.164,76.583 74.91,76.977 71.704,74.924 74.525,74.924 74.525,75.37 	"/>
</g>
</svg>
