<?xml version="1.0" encoding="utf-8"?>
<!-- Generator: Adobe Illustrator 16.0.3, SVG Export Plug-In . SVG Version: 6.00 Build 0)  -->
<!DOCTYPE svg PUBLIC "-//W3C//DTD SVG 1.1//EN" "http://www.w3.org/Graphics/SVG/1.1/DTD/svg11.dtd">
<svg version="1.1" id="Layer_1" xmlns="http://www.w3.org/2000/svg" xmlns:xlink="http://www.w3.org/1999/xlink" x="0px" y="0px"
	 width="12px" height="14.398px" viewBox="72.17 76.602 12 14.398" enable-background="new 72.17 76.602 12 14.398"
	 xml:space="preserve">
<title>Database</title>
<g>
	<polygon fill="#99BCE3" points="84.131,86.333 78.17,85.59 72.209,86.333 78.17,91 	"/>
	<polygon fill="#19486F" points="84.17,81.271 78.131,82.01 72.17,81.269 78.17,76.602 	"/>
	<polygon fill="#205B99" points="78.17,76.602 72.17,79.581 72.17,81.271 78.17,79.481 	"/>
	<polygon fill="#205B99" points="78.17,88.12 72.17,86.333 72.17,88.021 78.17,91 	"/>
	<polygon fill="#205B99" points="78.17,85.979 75.569,85.597 75.569,82.034 78.17,81.658 80.619,83.818 	"/>
	<polygon fill="#5294CF" points="78.17,76.602 84.17,79.581 84.17,81.271 78.17,79.481 	"/>
	<polygon fill="#5294CF" points="78.17,88.12 84.17,86.333 84.17,88.021 78.17,91 	"/>
	<polygon fill="#5294CF" points="78.17,85.979 80.771,85.597 80.771,82.034 78.17,81.658 	"/>
</g>
</svg>
