<?xml version="1.0" encoding="utf-8"?>
<!-- Generator: Adobe Illustrator 16.0.3, SVG Export Plug-In . SVG Version: 6.00 Build 0)  -->
<!DOCTYPE svg PUBLIC "-//W3C//DTD SVG 1.1//EN" "http://www.w3.org/Graphics/SVG/1.1/DTD/svg11.dtd">
<svg version="1.1" id="Layer_1" xmlns="http://www.w3.org/2000/svg" xmlns:xlink="http://www.w3.org/1999/xlink" x="0px" y="0px"
	 width="12px" height="13.564px" viewBox="70.43 72.605 12 13.564" enable-background="new 70.43 72.605 12 13.564"
	 xml:space="preserve">
<title>Database</title>
<g>
	<polygon fill="#2E73B8" points="82.428,77.033 82.428,75.601 80.921,73.951 78.452,79.389 80.921,84.824 82.428,83.172 
		82.428,81.739 81.926,82.08 81.926,81.393 82.428,81.132 82.428,79.689 81.926,79.703 81.926,79.058 82.428,79.083 82.428,77.679 
		81.926,77.415 81.926,76.932 	"/>
	<polygon fill="#5294CF" points="78.233,86.17 80.921,84.824 80.921,73.948 78.233,72.605 75.187,79.502 	"/>
	<polygon fill="#2E73B8" points="74.465,86.17 78.233,86.17 78.233,72.605 74.465,72.605 72.519,79.502 	"/>
	<polygon fill="#205B99" points="74.465,86.17 71.753,84.824 70.9,79.502 71.753,73.948 74.457,72.605 	"/>
	<polygon fill="#19486F" points="81.926,81.393 80.919,81.884 78.233,82.463 76.4,82.463 74.465,82.463 71.829,81.884 
		71.782,81.875 71.751,81.867 71.751,79.819 74.461,80.014 76.4,80.014 78.233,80.014 80.921,79.819 82.43,79.694 81.926,79.689 
		81.926,79.086 82.423,79.08 80.921,78.97 78.233,78.884 76.4,78.884 74.485,78.884 71.751,78.949 71.751,76.887 71.782,76.882 
		74.485,76.245 76.4,76.245 78.233,76.245 80.921,76.882 81.926,77.417 81.926,77.078 82.428,77.036 80.921,75.982 78.233,75.114 
		76.4,75.114 74.485,75.114 71.751,76.014 71.751,73.948 70.434,75.601 70.434,77.035 70.811,77.078 70.811,77.423 70.434,77.647 
		70.434,79.083 70.811,79.086 70.811,79.689 70.434,79.695 70.434,81.123 70.811,81.348 70.811,81.698 70.43,81.741 70.434,83.17 
		71.751,84.822 71.751,82.758 74.463,83.594 76.4,83.594 78.233,83.594 80.921,82.762 82.428,81.739 81.926,81.698 	"/>
</g>
</svg>
