<?xml version="1.0" encoding="utf-8"?>
<!-- Generator: Adobe Illustrator 16.0.3, SVG Export Plug-In . SVG Version: 6.00 Build 0)  -->
<!DOCTYPE svg PUBLIC "-//W3C//DTD SVG 1.1//EN" "http://www.w3.org/Graphics/SVG/1.1/DTD/svg11.dtd">
<svg version="1.1" id="Layer_1" xmlns="http://www.w3.org/2000/svg" xmlns:xlink="http://www.w3.org/1999/xlink" x="0px" y="0px"
	 width="15px" height="15px" viewBox="70.59 76.416 15 15" enable-background="new 70.59 76.416 15 15" xml:space="preserve">
<g>
	<polygon fill="#9D5025" points="72.691,79.369 72.09,79.671 72.09,88.161 72.691,88.462 75.128,84.136 	"/>
	<polygon fill="#F58536" points="74.095,88.133 72.691,88.462 72.691,79.369 74.095,79.689 	"/>
	<polygon fill="#9D5025" points="73.355,79.037 74.095,78.669 77.605,84.298 74.095,89.162 73.355,88.795 	"/>
	<polygon fill="#F58536" points="75.844,88.668 74.095,89.162 74.095,78.669 75.844,79.165 	"/>
	<polygon fill="#9D5025" points="74.918,78.256 75.844,77.793 81.023,84.914 75.844,90.039 74.918,89.576 	"/>
	<polygon fill="#F58536" points="78.088,89.219 75.844,90.039 75.844,77.793 78.088,78.614 	"/>
	<polygon fill="#9D5025" points="76.892,77.27 78.088,76.671 83.692,84.326 78.088,91.16 76.892,90.562 	"/>
	<polygon fill="#F58536" points="84.09,88.159 78.088,91.16 78.088,76.671 84.09,79.672 	"/>
</g>
</svg>
