<?xml version="1.0" encoding="utf-8"?>
<!-- Generator: Adobe Illustrator 16.0.3, SVG Export Plug-In . SVG Version: 6.00 Build 0)  -->
<!DOCTYPE svg PUBLIC "-//W3C//DTD SVG 1.1//EN" "http://www.w3.org/Graphics/SVG/1.1/DTD/svg11.dtd">
<svg version="1.1" id="레이어_1" xmlns="http://www.w3.org/2000/svg" xmlns:xlink="http://www.w3.org/1999/xlink" x="0px"
	 y="0px" width="20px" height="40px" viewBox="-0.5 -9.5 20 40" enable-background="new -0.5 -9.5 20 40" xml:space="preserve">
<g>
	<g>
		<path fill="#444444" d="M9.5-0.5c-2.206,0-4-1.794-4-4s1.794-4,4-4c2.205,0,4,1.794,4,4S11.705-0.5,9.5-0.5z M9.5-7.5
			c-1.654,0-3,1.346-3,3s1.346,3,3,3s3-1.346,3-3S11.154-7.5,9.5-7.5z"/>
	</g>
	<path fill="#444444" d="M18.353,2.208l-3-3c-0.194-0.195-0.512-0.195-0.707,0c-0.194,0.195-0.194,0.512,0,0.707l2.146,2.146h-5.543
		c-0.276,0-0.5,0.224-0.5,0.5s0.224,0.5,0.5,0.5h5.543l-2.146,2.146c-0.194,0.195-0.194,0.512,0,0.707
		C14.744,6.013,14.872,6.061,15,6.061s0.256-0.049,0.354-0.146l3-3c0.194-0.195,0.194-0.512,0-0.707L18.353,2.208z"/>
	<path fill="none" stroke="#444444" stroke-linecap="round" stroke-linejoin="round" stroke-miterlimit="10" d="M8.438,1
		C4.33,1,1,4.134,1,8c0,0.552,0.448,1,1,1h15.5"/>
</g>
<g>
	<g>
		<path fill="#DDDDDD" d="M9.5,19.5c-2.206,0-4-1.794-4-4s1.794-4,4-4c2.205,0,4,1.794,4,4S11.705,19.5,9.5,19.5z M9.5,12.5
			c-1.654,0-3,1.346-3,3s1.346,3,3,3s3-1.346,3-3S11.154,12.5,9.5,12.5z"/>
	</g>
	<path fill="#DDDDDD" d="M18.353,22.209l-3-3c-0.194-0.195-0.512-0.195-0.707,0c-0.194,0.194-0.194,0.512,0,0.707l2.146,2.146
		h-5.543c-0.276,0-0.5,0.224-0.5,0.5s0.224,0.5,0.5,0.5h5.543l-2.146,2.146c-0.194,0.195-0.194,0.512,0,0.707
		c0.099,0.099,0.227,0.146,0.354,0.146s0.256-0.049,0.354-0.146l3-3c0.194-0.195,0.194-0.512,0-0.707L18.353,22.209z"/>
	<path fill="none" stroke="#DDDDDD" stroke-linecap="round" stroke-linejoin="round" stroke-miterlimit="10" d="M8.438,21
		C4.33,21,1,24.134,1,28c0,0.553,0.448,1,1,1h15.5"/>
</g>
</svg>
