<?xml version="1.0" encoding="utf-8"?>
<!-- Generator: Adobe Illustrator 16.0.3, SVG Export Plug-In . SVG Version: 6.00 Build 0)  -->
<!DOCTYPE svg PUBLIC "-//W3C//DTD SVG 1.1//EN" "http://www.w3.org/Graphics/SVG/1.1/DTD/svg11.dtd">
<svg version="1.1" id="레이어_1" xmlns="http://www.w3.org/2000/svg" xmlns:xlink="http://www.w3.org/1999/xlink" x="0px"
	 y="0px" width="30px" height="30.775px" viewBox="681.087 564.506 30 30.775" enable-background="new 681.087 564.506 30 30.775"
	 xml:space="preserve">
<path fill="#FFFFFF" d="M696.13,564.506c0.364,0,0.757,0.144,1.092,0.307c4.366,2.021,8.732,4.06,13.09,6.108
	c0.315,0.144,0.766,0.201,0.775,0.671c0.01,0.479-0.45,0.536-0.757,0.68c-4.386,2.059-8.78,4.107-13.176,6.157
	c-0.709,0.325-1.417,0.335-2.126,0c-4.462-2.088-8.934-4.166-13.386-6.263c-0.23-0.105-0.518-0.383-0.518-0.574
	s0.297-0.46,0.526-0.565c4.453-2.097,8.925-4.185,13.396-6.253C695.363,564.621,695.881,564.506,696.13,564.506z"/>
<path fill="#FFFFFF" d="M696.082,587.008c-0.297,0-0.737-0.162-1.082-0.315c-4.453-2.068-8.905-4.146-13.349-6.234
	c-0.229-0.104-0.555-0.393-0.536-0.555c0.029-0.23,0.307-0.479,0.546-0.604c0.719-0.383,1.465-0.699,2.202-1.044
	c0.757-0.354,1.504-0.345,2.26,0.01c2.911,1.369,5.842,2.72,8.752,4.089c0.824,0.393,1.609,0.383,2.433-0.01
	c2.911-1.369,5.831-2.72,8.752-4.089c0.737-0.345,1.475-0.354,2.212-0.01c0.785,0.364,1.57,0.709,2.336,1.102
	c0.201,0.105,0.47,0.354,0.45,0.518c-0.019,0.2-0.258,0.459-0.469,0.564c-4.481,2.116-8.973,4.213-13.473,6.301
	C696.809,586.864,696.398,587.008,696.082,587.008L696.082,587.008z"/>
<path fill="#FFFFFF" d="M696.101,595.281c-0.441,0-0.891-0.221-1.283-0.402c-4.328-2.001-8.646-4.021-12.966-6.042
	c-0.315-0.144-0.766-0.201-0.766-0.68s0.364-0.526,0.67-0.68c1.331-0.623,1.427-0.623,2.088-0.938
	c0.766-0.364,1.532-0.354,2.308,0.01c2.863,1.34,5.726,2.652,8.579,4.012c0.92,0.44,1.771,0.45,2.7,0.01
	c2.854-1.36,5.727-2.672,8.58-4.013c0.785-0.373,1.561-0.383,2.346,0c0.747,0.364,1.514,0.689,2.25,1.063
	c0.201,0.105,0.46,0.315,0.46,0.517c-0.01,0.23-0.259,0.46-0.469,0.565c-3.084,1.465-6.177,2.901-9.27,4.347
	c-1.331,0.623-2.652,1.255-3.993,1.849C696.953,595.07,696.551,595.281,696.101,595.281L696.101,595.281z"/>
</svg>
