<?xml version="1.0" encoding="utf-8"?>
<!-- Generator: Adobe Illustrator 16.0.3, SVG Export Plug-In . SVG Version: 6.00 Build 0)  -->
<!DOCTYPE svg PUBLIC "-//W3C//DTD SVG 1.1//EN" "http://www.w3.org/Graphics/SVG/1.1/DTD/svg11.dtd">
<svg version="1.1" id="레이어_2" xmlns="http://www.w3.org/2000/svg" xmlns:xlink="http://www.w3.org/1999/xlink" x="0px"
	 y="0px" width="27px" height="32px" viewBox="0 0 27 32" enable-background="new 0 0 27 32" xml:space="preserve">
<path fill="#FFFFFF" d="M25.583,0H7.417C6.638,0,6,0.638,6,1.417V4h15.583C22.362,4,23,4.638,23,5.417V26h2.583
	C26.362,26,27,25.362,27,24.583V1.417C27,0.638,26.362,0,25.583,0z"/>
<path fill="#FFFFFF" d="M19.583,6H1.417C0.638,6,0,6.638,0,7.417v23.166C0,31.362,0.638,32,1.417,32h18.165
	C20.362,32,21,31.362,21,30.583V7.417C21,6.638,20.362,6,19.583,6z M16,20H5v-2h11V20z"/>
</svg>
