<?xml version="1.0" encoding="utf-8"?>
<!-- Generator: Adobe Illustrator 16.0.3, SVG Export Plug-In . SVG Version: 6.00 Build 0)  -->
<!DOCTYPE svg PUBLIC "-//W3C//DTD SVG 1.1//EN" "http://www.w3.org/Graphics/SVG/1.1/DTD/svg11.dtd">
<svg version="1.1" id="레이어_1" xmlns="http://www.w3.org/2000/svg" xmlns:xlink="http://www.w3.org/1999/xlink" x="0px"
	 y="0px" width="76px" height="13px" viewBox="0 0 76 13" enable-background="new 0 0 76 13" xml:space="preserve">
<g>
	<g>
		<g>
			<path fill="#E04351" d="M10.081,3.207C9.798,2.56,9.415,1.999,8.933,1.524C8.452,1.05,7.892,0.674,7.252,0.396
				C6.611,0.12,5.929-0.012,5.203,0.001c-0.712,0-1.385,0.138-2.018,0.415C2.552,0.694,1.998,1.073,1.523,1.555
				C1.048,2.036,0.676,2.596,0.405,3.235C0.152,3.836,0.02,4.474,0.004,5.15H0V13h2.75V5.266h0.001c0-0.356,0.08-0.668,0.206-0.971
				c0.125-0.304,0.3-0.571,0.524-0.802c0.224-0.23,0.485-0.413,0.782-0.544C4.561,2.817,4.88,2.751,5.223,2.751
				c0.356,0,0.686,0.063,0.99,0.188c0.303,0.126,0.57,0.305,0.802,0.535c0.231,0.231,0.412,0.499,0.544,0.801
				c0.131,0.304,0.204,0.633,0.217,0.99V13h2.75V5.264C10.513,4.539,10.364,3.853,10.081,3.207z"/>
		</g>
		<g>
			<path fill="#FFFFFF" d="M10.238,0.001c0.726,0,1.408,0.135,2.048,0.405c0.64,0.271,1.197,0.644,1.672,1.118
				c0.475,0.475,0.851,1.033,1.128,1.673c0.277,0.64,0.415,1.323,0.415,2.047c0,0.712-0.131,1.389-0.396,2.028
				c-0.263,0.64-0.629,1.197-1.098,1.67c-0.468,0.477-1.023,0.854-1.662,1.139c-0.64,0.284-1.329,0.426-2.067,0.426
				c-0.344,0-0.66,0.065-0.95,0.198c-0.29,0.132-0.548,0.31-0.772,0.534c-0.224,0.224-0.398,0.487-0.524,0.791
				C7.906,12.333,7.845,12.657,7.845,13h-2.81c0-0.727,0.158-1.405,0.434-2.039c0.277-0.634,0.653-1.187,1.128-1.662
				c0.476-0.475,1.03-0.851,1.663-1.127c0.633-0.277,1.306-0.416,2.019-0.416c0.343-0.013,0.662-0.085,0.959-0.217
				c0.296-0.132,0.557-0.31,0.781-0.534c0.225-0.224,0.403-0.481,0.535-0.771s0.199-0.607,0.199-0.95
				c0-0.342-0.067-0.669-0.199-0.979s-0.313-0.577-0.543-0.802c-0.231-0.223-0.499-0.402-0.802-0.534
				c-0.304-0.131-0.626-0.198-0.97-0.198c-0.343,0-0.662,0.067-0.96,0.198C8.981,3.101,8.721,3.282,8.497,3.513
				c-0.224,0.23-0.399,0.499-0.524,0.801C7.847,4.618,7.784,4.941,7.784,5.284v0.099H5.13v-0.08c0-0.725,0.023-1.41,0.3-2.057
				C5.707,2.6,6.083,2.038,6.557,1.563c0.476-0.475,1.03-0.851,1.663-1.128C8.853,0.159,9.525,0.014,10.238,0.001z"/>
		</g>
		<g>
			<path fill="#E04351" d="M2.749,6.906c0-0.535,0.021-1.016,0.021-1.623c0-0.357,0.062-0.686,0.188-0.988
				c0.125-0.304,0.3-0.571,0.524-0.802c0.224-0.23,0.485-0.413,0.782-0.544C4.561,2.817,4.88,2.751,5.223,2.751
				c0.356,0,0.686,0.063,0.99,0.188c0.303,0.126,0.57,0.305,0.802,0.535c0.231,0.231,0.412,0.499,0.544,0.801
				c0.131,0.304,0.204,0.633,0.217,0.99v0.477h2.75V5.167h-0.004c-0.024-0.69-0.17-1.343-0.441-1.96
				C9.798,2.56,9.415,1.999,8.933,1.524C8.452,1.05,7.892,0.674,7.252,0.396C6.611,0.12,5.929-0.012,5.203,0.001
				c-0.712,0-1.385,0.138-2.018,0.415C2.552,0.694,1.998,1.073,1.523,1.555C1.048,2.036,0.676,2.596,0.405,3.235
				C0.135,3.876,0,4.559,0,5.284c0,0.607,0,1.149,0,1.731"/>
		</g>
		<rect x="1.721" y="5.174" fill="#E04351" width="7.085" height="2.749"/>
	</g>
	<g>
		<path fill="#FFFFFF" d="M24.59,9.958v0.833c0,1.473-0.833,2.209-2.499,2.209h-1.347c-1.667,0-2.499-0.736-2.499-2.209V2.209
			C18.245,0.736,19.078,0,20.744,0h1.347c1.667,0,2.499,0.736,2.499,2.209v1.467h-2.086v-1.34c0-0.507-0.311-0.761-0.934-0.761
			h-0.413c-0.552,0-0.826,0.253-0.826,0.761v8.329c0,0.507,0.274,0.761,0.826,0.761h0.521c0.551,0,0.825-0.254,0.825-0.761V9.958
			H24.59z"/>
		<path fill="#FFFFFF" d="M28.632,13c-1.681,0-2.521-0.736-2.521-2.209V2.227C26.111,0.742,26.944,0,28.61,0h2
			c1.665,0,2.498,0.742,2.498,2.227v8.564c0,1.473-0.84,2.209-2.521,2.209H28.632z M29.131,11.425h1.064
			c0.55,0,0.826-0.254,0.826-0.761V2.335c0-0.507-0.313-0.761-0.935-0.761H29.11c-0.609,0-0.913,0.253-0.913,0.761v8.329
			C28.197,11.171,28.509,11.425,29.131,11.425z"/>
		<path fill="#FFFFFF" d="M39.191,7.641L41.126,0h2.302v13h-2.085l0.216-8.51l-1.563,6.154h-1.608l-1.564-6.154L37.041,13h-2.086V0
			h2.303L39.191,7.641z"/>
		<path fill="#FFFFFF" d="M45.384,0h3.802c1.681,0,2.521,0.742,2.521,2.227v3.857c0,1.473-0.834,2.209-2.499,2.209h-1.737V13h-2.087
			V0z M47.471,6.718h1.325c0.55,0,0.825-0.253,0.825-0.761V2.335c0-0.507-0.312-0.761-0.935-0.761h-1.216V6.718z"/>
		<path fill="#FFFFFF" d="M55.335,13h-2.086V2.227C53.249,0.742,54.081,0,55.748,0h1.563c1.667,0,2.5,0.742,2.5,2.227V13h-2.087
			V8.238h-2.39V13z M57.725,6.664V2.335c0-0.507-0.304-0.761-0.913-0.761h-0.565c-0.606,0-0.911,0.253-0.911,0.761v4.328H57.725z"/>
		<path fill="#FFFFFF" d="M65.98,6.283V0h2.086v13H65.98v-2.59l-2.236-5.92V13h-2.086V0h2.086L65.98,6.283z"/>
		<path fill="#FFFFFF" d="M73.479,13h-2.087v-4.78L68.828,0h2.063l1.565,5.649h0.064L73.935,0H76l-2.521,8.221V13z"/>
	</g>
</g>
</svg>
