<?xml version="1.0" encoding="utf-8"?>
<!-- Generator: Adobe Illustrator 16.0.3, SVG Export Plug-In . SVG Version: 6.00 Build 0)  -->
<!DOCTYPE svg PUBLIC "-//W3C//DTD SVG 1.1//EN" "http://www.w3.org/Graphics/SVG/1.1/DTD/svg11.dtd">
<svg version="1.1" id="Layer_1" xmlns="http://www.w3.org/2000/svg" xmlns:xlink="http://www.w3.org/1999/xlink" x="0px" y="0px"
	 width="68px" height="16.029px" viewBox="0 0 68 16.029" enable-background="new 0 0 68 16.029" xml:space="preserve">
<g>
	<path fill="#444344" d="M0,0h5.454v6.058L11.171,0h7.24l-6.41,6.032l6.691,9.997h-6.709l-3.708-6.58l-2.821,2.675v3.905H0V0z"/>
	<path fill="#444344" d="M20.72,0h5.454v16.029H20.72V0z"/>
	<path fill="#444344" d="M30.124,0h5.086l6.616,8.854V0h5.147v16.029h-5.147l-6.58-8.806v8.806h-5.122V0z"/>
	<path fill="#444344" d="M49.41,0h5.992l3.116,4.932L61.547,0h5.941l-5.482,7.763L68,16.029h-6.12l-3.47-5.15l-3.469,5.15h-6.095
		l6.084-8.354L49.41,0z"/>
</g>
</svg>
