<?xml version="1.0" encoding="utf-8"?>
<!-- Generator: Adobe Illustrator 16.0.3, SVG Export Plug-In . SVG Version: 6.00 Build 0)  -->
<!DOCTYPE svg PUBLIC "-//W3C//DTD SVG 1.1//EN" "http://www.w3.org/Graphics/SVG/1.1/DTD/svg11.dtd">
<svg version="1.1" id="Layer_1" xmlns="http://www.w3.org/2000/svg" xmlns:xlink="http://www.w3.org/1999/xlink" x="0px" y="0px"
	 width="42px" height="9.9px" viewBox="0 0 42 9.9" enable-background="new 0 0 42 9.9" xml:space="preserve">
<g>
	<polygon fill="#FFFFFF" points="11.371,0 6.9,0 3.369,3.741 3.369,0 0,0 0,9.9 3.369,9.9 3.369,7.488 5.111,5.836 7.401,9.9 
		11.545,9.9 7.412,3.726 	"/>
	<rect x="12.798" y="0" fill="#FFFFFF" width="3.368" height="9.9"/>
	<polygon fill="#FFFFFF" points="25.834,5.469 21.747,0 18.606,0 18.606,9.9 21.77,9.9 21.77,4.462 25.834,9.9 29.014,9.9 29.014,0 
		25.834,0 	"/>
	<polygon fill="#FFFFFF" points="38.298,4.795 41.684,0 38.016,0 36.145,3.046 34.219,0 30.518,0 33.928,4.741 30.17,9.9 
		33.936,9.9 36.077,6.72 38.221,9.9 42,9.9 	"/>
</g>
</svg>
