<?xml version="1.0" encoding="utf-8"?>
<!-- Generator: Adobe Illustrator 16.0.3, SVG Export Plug-In . SVG Version: 6.00 Build 0)  -->
<!DOCTYPE svg PUBLIC "-//W3C//DTD SVG 1.1//EN" "http://www.w3.org/Graphics/SVG/1.1/DTD/svg11.dtd">
<svg version="1.1" id="레이어_1" xmlns="http://www.w3.org/2000/svg" xmlns:xlink="http://www.w3.org/1999/xlink" x="0px"
	 y="0px" width="111px" height="18.987px" viewBox="0 0 111 18.987" enable-background="new 0 0 111 18.987" xml:space="preserve">
<g>
	<g>
		<g>
			<path fill="#FF4F5E" d="M14.725,4.683c-0.414-0.944-0.974-1.763-1.677-2.456c-0.702-0.693-1.522-1.242-2.455-1.647
				C9.658,0.174,8.661-0.018,7.601,0.001c-1.041,0-2.022,0.202-2.948,0.606C3.729,1.013,2.919,1.566,2.225,2.271
				C1.533,2.973,0.987,3.792,0.593,4.726c-0.37,0.877-0.564,1.81-0.587,2.795H0v11.466h4.018V7.69h0.003
				c0-0.52,0.118-0.975,0.3-1.418C4.504,5.831,4.76,5.439,5.087,5.102C5.415,4.765,5.795,4.5,6.229,4.308
				c0.433-0.192,0.9-0.289,1.401-0.289c0.521,0,1,0.091,1.445,0.274c0.442,0.184,0.833,0.443,1.17,0.78
				c0.338,0.337,0.601,0.728,0.795,1.17c0.193,0.444,0.298,0.925,0.317,1.445v11.299h4.018V7.688
				C15.355,6.629,15.139,5.627,14.725,4.683z"/>
		</g>
		<g>
			<path fill="#444444" d="M14.954,0.001c1.06,0,2.057,0.197,2.991,0.592c0.935,0.395,1.749,0.94,2.442,1.633
				c0.693,0.693,1.242,1.507,1.646,2.442c0.405,0.935,0.607,1.931,0.607,2.991c0,1.04-0.192,2.028-0.578,2.962
				c-0.385,0.934-0.92,1.748-1.604,2.44c-0.683,0.695-1.494,1.249-2.428,1.663c-0.934,0.414-1.94,0.621-3.02,0.621
				c-0.501,0-0.964,0.097-1.387,0.288c-0.424,0.194-0.801,0.454-1.128,0.781c-0.328,0.327-0.583,0.712-0.765,1.155
				c-0.183,0.442-0.274,0.915-0.274,1.416H7.354c0-1.06,0.231-2.053,0.635-2.977c0.405-0.925,0.954-1.733,1.647-2.428
				c0.694-0.692,1.503-1.241,2.427-1.647c0.925-0.403,1.909-0.606,2.948-0.606c0.501-0.019,0.968-0.124,1.402-0.317
				c0.434-0.192,0.813-0.453,1.142-0.781c0.327-0.327,0.586-0.703,0.78-1.126c0.192-0.423,0.29-0.887,0.29-1.388
				c0-0.5-0.097-0.977-0.29-1.43c-0.194-0.452-0.458-0.842-0.794-1.171c-0.336-0.327-0.728-0.587-1.171-0.779
				c-0.443-0.192-0.915-0.29-1.416-0.29c-0.501,0-0.968,0.097-1.402,0.29c-0.434,0.192-0.813,0.458-1.141,0.795
				c-0.328,0.336-0.583,0.727-0.766,1.169c-0.184,0.444-0.274,0.916-0.274,1.416v0.145H7.495V7.746c0-1.058,0.032-2.061,0.438-3.004
				c0.404-0.944,0.953-1.764,1.646-2.457c0.694-0.694,1.504-1.243,2.427-1.647C12.931,0.232,13.914,0.021,14.954,0.001z"/>
		</g>
		<g>
			<path fill="#FF4F5E" d="M4.016,10.087c0-0.782,0.03-1.484,0.03-2.371c0-0.521,0.092-1.001,0.275-1.444
				C4.504,5.831,4.76,5.439,5.087,5.102C5.415,4.765,5.795,4.5,6.229,4.308c0.433-0.192,0.9-0.289,1.401-0.289
				c0.521,0,1,0.091,1.445,0.274c0.442,0.184,0.833,0.443,1.17,0.78c0.338,0.337,0.601,0.728,0.795,1.17
				c0.193,0.444,0.298,0.925,0.317,1.445v0.697h4.018V7.546h-0.007c-0.035-1.007-0.249-1.961-0.644-2.864
				c-0.414-0.944-0.974-1.763-1.677-2.456c-0.702-0.693-1.522-1.242-2.455-1.647C9.658,0.174,8.661-0.018,7.601,0.001
				c-1.041,0-2.022,0.202-2.948,0.606C3.729,1.013,2.919,1.566,2.225,2.271C1.533,2.973,0.987,3.792,0.593,4.726
				C0.198,5.661,0,6.658,0,7.717c0,0.887,0.002,1.679,0.002,2.529"/>
		</g>
		<rect x="2.514" y="7.557" fill="#FF4F5E" width="10.35" height="4.015"/>
	</g>
	<g>
		<path fill="#444444" d="M35.915,14.545v1.217c0,2.151-1.215,3.226-3.648,3.226h-1.968c-2.433,0-3.65-1.074-3.65-3.226V3.227
			c0-2.151,1.217-3.227,3.65-3.227h1.968c2.433,0,3.648,1.075,3.648,3.227v2.141H32.87V3.411c0-0.741-0.456-1.11-1.364-1.11h-0.604
			c-0.804,0-1.206,0.37-1.206,1.11v12.165c0,0.74,0.401,1.111,1.206,1.111h0.762c0.804,0,1.206-0.371,1.206-1.111v-1.031H35.915z"/>
		<path fill="#444444" d="M41.819,18.987c-2.454,0-3.681-1.074-3.681-3.226V3.253C38.138,1.084,39.354,0,41.787,0h2.921
			c2.431,0,3.648,1.083,3.648,3.253v12.508c0,2.151-1.227,3.226-3.681,3.226H41.819z M42.548,16.688h1.555
			c0.804,0,1.206-0.371,1.206-1.111V3.411c0-0.741-0.456-1.11-1.364-1.11h-1.428c-0.889,0-1.333,0.37-1.333,1.11v12.165
			C41.184,16.316,41.639,16.688,42.548,16.688z"/>
		<path fill="#444444" d="M57.241,11.16L60.065,0h3.363v18.987h-3.046L60.7,6.559l-2.284,8.991h-2.349l-2.285-8.991L54.1,18.987
			h-3.046V0h3.364L57.241,11.16z"/>
		<path fill="#444444" d="M66.285,0h5.553c2.456,0,3.682,1.083,3.682,3.253v5.633c0,2.151-1.215,3.225-3.648,3.225h-2.539v6.876
			h-3.047V0z M69.332,9.811h1.937c0.804,0,1.205-0.37,1.205-1.11v-5.29c0-0.741-0.454-1.11-1.364-1.11h-1.777V9.811z"/>
		<path fill="#444444" d="M80.819,18.987h-3.046V3.253C77.773,1.084,78.988,0,81.423,0h2.284c2.433,0,3.65,1.083,3.65,3.253v15.734
			h-3.047v-6.954h-3.491V18.987z M84.311,9.733V3.411c0-0.741-0.445-1.11-1.333-1.11h-0.824c-0.89,0-1.334,0.37-1.334,1.11v6.322
			H84.311z"/>
		<path fill="#444444" d="M96.369,9.176V0h3.047v18.987h-3.047v-3.782l-3.268-8.646v12.429h-3.047V0h3.047L96.369,9.176z"/>
		<path fill="#444444" d="M107.317,18.987h-3.046v-6.981L100.528,0h3.014l2.285,8.25h0.094L107.984,0H111l-3.683,12.005V18.987z"/>
	</g>
</g>
</svg>
